<?xml version="1.0" standalone="no"?>
<!DOCTYPE svg PUBLIC "-//W3C//DTD SVG 20010904//EN"
 "http://www.w3.org/TR/2001/REC-SVG-20010904/DTD/svg10.dtd">
<svg version="1.0" xmlns="http://www.w3.org/2000/svg"
 width="1200.000000pt" height="1200.000000pt" viewBox="0 0 1200.000000 1200.000000"
 preserveAspectRatio="xMidYMid meet">

<g transform="translate(0.000000,1200.000000) scale(0.100000,-0.100000)"
fill="#000000" stroke="none">
<path d="M4105 8574 c-22 -2 -83 -9 -135 -15 -527 -60 -1031 -338 -1392 -769
-172 -205 -351 -514 -443 -764 -47 -129 -108 -370 -130 -516 -26 -169 -31
-544 -11 -729 44 -392 147 -741 326 -1106 311 -630 813 -1195 1570 -1765 305
-230 556 -399 1189 -802 327 -208 894 -583 953 -630 l27 -21 35 31 c48 42 519
353 966 638 590 375 964 631 1245 849 958 744 1507 1492 1730 2360 108 422
125 896 45 1307 -105 544 -406 1066 -815 1416 -511 437 -1147 603 -1830 477
-481 -89 -922 -315 -1260 -646 l-120 -117 -95 95 c-367 368 -865 612 -1403
688 -106 15 -379 26 -452 19z"/>
</g>
</svg>
